<svg width="135" height="39" viewBox="0 0 135 39" fill="none" xmlns="http://www.w3.org/2000/svg">
<path fill-rule="evenodd" clip-rule="evenodd" d="M112.72 1.52588e-05V5.52002H128.96V21.8667H134.48V5.52002V0.133349V1.52588e-05H112.72Z" fill="#FF9900"/>
<path fill-rule="evenodd" clip-rule="evenodd" d="M22.7467 38.1067H18.16L14.48 26.88L10.8 38.1067H6.26667L0 15.3334H5.86667L8.82667 27.36L12.5067 15.3334H16.48L20.16 27.36L23.12 15.3334H28.9867L22.7467 38.1067Z" fill="#263640"/>
<path fill-rule="evenodd" clip-rule="evenodd" d="M37.7067 38.1067V15.3334H53.1733V20.32H43.28V24.1334H51.7333V29.12H43.28V33.12H53.1733V38.1067H37.7067Z" fill="#263640"/>
<path fill-rule="evenodd" clip-rule="evenodd" d="M63.5467 38.1067V15.3334H69.1467V38.1067H63.5467Z" fill="#263640"/>
<path fill-rule="evenodd" clip-rule="evenodd" d="M86.64 38.2933C83.4687 38.578 80.3289 37.4795 78.0267 35.28L81.6 31.7067C83.0414 32.8517 84.8561 33.4218 86.6933 33.3067C88.88 33.3067 89.9467 32.56 89.9467 31.2533C89.9726 30.7671 89.8103 30.2896 89.4933 29.92C89.0676 29.5758 88.5462 29.371 88 29.3333L85.3333 28.96C83.6202 28.8187 82.0046 28.1048 80.7467 26.9333C79.6425 25.6796 79.0772 24.0412 79.1733 22.3733C79.1733 18.2133 82.32 15.1733 87.4933 15.1733C90.3133 14.9513 93.0977 15.9181 95.1733 17.84L91.5733 21.3333C90.3858 20.2978 88.8199 19.8048 87.2533 19.9733C85.3067 19.9733 84.5867 21.0933 84.5867 22.08C84.5938 22.4809 84.7564 22.8633 85.04 23.1467C85.4689 23.5483 86.0265 23.7845 86.6133 23.8133L89.28 24.2133C90.9386 24.3233 92.514 24.9797 93.76 26.08C94.9746 27.4447 95.5811 29.2452 95.44 31.0667C95.44 35.76 91.44 38.2933 86.64 38.2933Z" fill="#263640"/>
<path fill-rule="evenodd" clip-rule="evenodd" d="M111.84 38.2934C108.66 38.5824 105.51 37.4839 103.2 35.28L106.667 31.7067C108.112 32.845 109.924 33.4143 111.76 33.3067C113.973 33.3067 115.013 32.56 115.013 31.2534C115.036 30.772 114.885 30.2986 114.587 29.92C114.157 29.5611 113.625 29.3465 113.067 29.3067L110.4 28.9334C108.696 28.7862 107.091 28.0727 105.84 26.9067C104.726 25.6591 104.159 24.0161 104.267 22.3467C104.267 18.1867 107.387 15.1467 112.587 15.1467C115.399 14.9257 118.174 15.8929 120.24 17.8134L116.773 21.3334C115.586 20.2978 114.02 19.8049 112.453 19.9734C110.48 19.9734 109.787 21.0934 109.787 22.08C109.794 22.4809 109.956 22.8633 110.24 23.1467C110.669 23.5483 111.226 23.7845 111.813 23.8134L114.48 24.2134C116.139 24.3234 117.714 24.9798 118.96 26.08C120.195 27.434 120.813 29.2398 120.667 31.0667C120.64 35.76 116.64 38.2934 111.84 38.2934Z" fill="#263640"/>
</svg>
